<svg width="25" height="25" viewBox="0 0 25 25" fill="none" xmlns="http://www.w3.org/2000/svg">
<path d="M20.3947 10.9213V7.71073C20.3947 7.15845 19.947 6.71073 19.3947 6.71073H12.3879C12.1227 6.71073 11.8683 6.60538 11.6808 6.41784L10.1613 4.89836C9.97378 4.71083 9.71942 4.60547 9.45421 4.60547H3.5C2.94772 4.60547 2.5 5.05318 2.5 5.60547V19.3949C2.5 19.9472 2.94772 20.3949 3.5 20.3949H4.76684C5.25896 20.3949 5.65789 19.996 5.65789 19.5039V19.5039C5.65789 19.397 5.67711 19.2911 5.71463 19.191L8.57246 11.5701C8.71882 11.1798 9.09194 10.9213 9.50879 10.9213H21.1126C21.7951 10.9213 22.2771 11.59 22.0613 12.2375L19.57 19.7112C19.4339 20.1195 19.0518 20.3949 18.6213 20.3949H4.60526" stroke="black" stroke-width="1.5" stroke-linecap="round" stroke-linejoin="round"/>
</svg>
