<svg width="92" height="80" viewBox="0 0 92 80" fill="none" xmlns="http://www.w3.org/2000/svg">
<path d="M36 0.5C35.2031 0.5 34.4375 0.81641 33.875 1.37891C33.3125 1.94532 32.9961 2.70701 32.9961 3.50391C32.9961 4.29688 33.3125 5.06251 33.875 5.62501L41.75 13.5L33.875 21.3789C33.3125 21.9414 32.9961 22.7031 32.9961 23.5C32.9961 24.2969 33.3125 25.0586 33.875 25.6211C34.4375 26.1875 35.2031 26.5039 36 26.5039C36.7969 26.5039 37.5586 26.1875 38.1211 25.6211L45.9961 17.7422L53.8711 25.6211H53.875C54.4375 26.1875 55.1992 26.5039 55.9961 26.5039C56.793 26.5039 57.5547 26.1875 58.1172 25.6211C58.6797 25.0586 58.9961 24.2969 58.9961 23.5C58.9961 22.7031 58.6797 21.9414 58.1172 21.3789L50.2422 13.5L58.1172 5.62501C58.6797 5.06251 58.9961 4.29691 58.9961 3.50391C58.9961 2.70703 58.6797 1.94531 58.1172 1.37891C57.5547 0.81641 56.793 0.5 55.9961 0.5C55.1992 0.5 54.4375 0.81641 53.875 1.37891L46 9.25391L38.125 1.37891H38.1211C37.5586 0.81641 36.7969 0.5 36 0.5ZM7.00001 30.504C3.16801 30.504 0.00390625 33.672 0.00390625 37.5001V66.5041C0.00390625 73.6486 5.85941 79.5041 13.0039 79.5041H79.0079C86.1524 79.5041 92.0039 73.6486 92.0039 66.5041V37.5001C92.0039 33.6681 88.832 30.504 85 30.504H71.504C68.0313 30.504 64.754 32.1798 62.7267 35.0001L56.6447 43.4689C55.7424 44.7267 54.3049 45.4689 52.7541 45.4689H39.2541C37.7072 45.4689 36.258 44.7267 35.3557 43.4689L29.2737 35.0001C27.2464 32.1798 23.9768 30.504 20.5042 30.504H7.00001ZM7.00001 36.5079H20.504C22.0509 36.5079 23.4962 37.2423 24.3985 38.5001L30.4805 46.9767C32.5078 49.797 35.7774 51.4728 39.25 51.4728H52.746C56.2187 51.4728 59.496 49.797 61.5233 46.9767L67.6053 38.5001C68.5076 37.2423 69.9569 36.5079 71.5037 36.5079H84.9997C85.5857 36.5079 86.0036 36.9181 86.0036 37.504V66.508C86.0036 70.4103 82.9059 73.5041 79.0075 73.5041H13.0035C9.10121 73.5041 5.99961 70.4064 5.99961 66.508V37.504C5.99961 36.9181 6.41758 36.5079 7.00351 36.5079H7.00001Z" fill="black"/>
</svg>
